<?xml version="1.0" encoding="utf-8"?>
<!-- Svg Vector Icons : http://www.onlinewebfonts.com/icon -->
<!DOCTYPE svg PUBLIC "-//W3C//DTD SVG 1.1//EN" "http://www.w3.org/Graphics/SVG/1.1/DTD/svg11.dtd">
<svg version="1.1" xmlns="http://www.w3.org/2000/svg" xmlns:xlink="http://www.w3.org/1999/xlink" x="0px" y="0px" viewBox="0 0 256 256" enable-background="new 0 0 256 256" xml:space="preserve">
<metadata> Svg Vector Icons : http://www.onlinewebfonts.com/icon </metadata>
<g><g><g><path d="M185.6,10.5c-2.5,0.9-3.5,1.7-4.4,3.7c-0.8,2.1-0.9,4.5-0.1,6c0.3,0.6,4.2,4.6,8.5,8.9c12.6,12.5,20.1,22.8,27.5,37.9c6.6,13.4,10.8,26.6,13,41.6c1.4,8.7,1.4,30.1,0.1,38.7c-3.9,25.2-13.8,48-29.2,67.5c-1.9,2.4-7.1,7.9-11.4,12.3c-4.4,4.3-8.2,8.3-8.5,8.9c-1.4,2.7,0,7.3,2.8,9c2.1,1.3,5.8,1.3,7.9-0.1c2.5-1.6,13.3-12.1,17.9-17.7c20-23.8,31.9-51.3,35.5-82.1c1-8.5,1-25.9,0-34.5c-4.2-35.7-20-67.9-45.8-92.7C191.3,10.2,189.5,9.1,185.6,10.5z"/><path d="M164.7,32.8c-2.1,1.1-3.3,2.5-3.9,4.9c-0.9,3.4-0.1,4.8,7.1,11.9c19.1,18.8,30.2,41.9,32.9,68.1c2.2,22.5-3.1,46.4-14.6,65.9c-4.9,8.3-10.6,15.5-18.1,22.9c-7,6.9-8.1,8.7-7.4,11.5c0.6,2.6,2.2,4.6,4.4,5.5c3.6,1.4,5.5,0.8,10.6-3.8c15.6-13.8,28.3-33.9,34.9-55.4c7-22.7,7-49.5,0-72.2c-6.3-20.3-16.5-37.2-31.7-52.3C171.2,32.1,168.6,30.8,164.7,32.8z"/><path d="M110.3,39.9c-1.1,0.3-2.7,0.8-3.6,1.3c-0.9,0.5-13.8,10.3-28.6,21.8L51.2,84h-15h-15L18,85.6c-3.6,1.8-6.2,4.9-7.3,8.5c-0.9,3.2-0.9,65.2,0,68.1c1.5,4.4,4.4,7.4,8.9,9.4c1.6,0.6,4.6,0.8,16.8,0.8h14.8l27,21.1c14.9,11.6,28.2,21.6,29.5,22.1c5.5,2.5,12.2,0.9,16.5-3.8c4.2-4.7,3.9,1.4,3.9-83.5c0-84.9,0.3-78.9-3.9-83.5C120.7,40.7,115,38.7,110.3,39.9z M113.5,165.1l-0.2,36.9l-25.8-20.1l-25.9-20.2v-33.6V94.5l25.9-20.2l25.8-20.2l0.2,37C113.5,111.5,113.5,144.8,113.5,165.1z M54.3,128.1v29.6H39.5H24.7v-29.6V98.5h14.8h14.8V128.1L54.3,128.1z"/><path d="M146.9,62.5c-2.3,1.1-3.7,3.5-3.7,6.3c0,3.1,0.5,3.8,5.6,8.9c9.8,9.7,15.9,20.4,19.2,33.2c6.2,24.5-1.1,50.1-19.5,67.8c-4.4,4.3-5.2,5.7-5.2,8.6c0,2.8,1.4,5,3.7,6.3c3.9,2,6.4,1.1,11.9-4.3c14.3-14,23.1-31.8,25.4-51.5c0.9-7.3,0.4-19.7-1-26.4c-3.6-17.4-11.8-32.3-24.4-44.5C153.4,61.6,150.7,60.7,146.9,62.5z"/></g></g></g>
</svg>